<svg xmlns="http://www.w3.org/2000/svg" xmlns:xlink="http://www.w3.org/1999/xlink" version="1.1" x="0px" y="0px" viewBox="0 0 100 125" enable-background="new 0 0 100 100" xml:space="preserve"><g><path d="M50,51.272c-4.358,0-7.904,3.546-7.904,7.904c0,4.358,3.546,7.904,7.904,7.904c4.358,0,7.904-3.546,7.904-7.904   C57.904,54.818,54.358,51.272,50,51.272z"/><path d="M63.174,59.176c0-7.276-5.898-13.174-13.174-13.174S36.826,51.9,36.826,59.176c0,7.276,5.898,13.174,13.174,13.174   S63.174,66.452,63.174,59.176z M50,68.661c-5.23,0-9.485-4.255-9.485-9.485c0-5.23,4.255-9.485,9.485-9.485   s9.485,4.255,9.485,9.485C59.485,64.406,55.23,68.661,50,68.661z"/><path d="M50,44.158c2.543,0,4.936,0.897,7.035,2.012L58.958,7H41.042l1.923,39.17C45.064,45.055,47.457,44.158,50,44.158z"/><path d="M37.108,66.487c-1.272-2.202-1.916-4.593-1.999-6.969L0,77.568l8.958,15.516l33.185-21.381   C40.128,70.443,38.38,68.69,37.108,66.487z"/><path d="M64.891,59.519c-0.083,2.376-0.728,4.766-1.999,6.968c-1.272,2.202-3.02,3.956-5.035,5.216l33.185,21.381L100,77.568   L64.891,59.519z"/></g><text x="0" y="115" fill="#000000" font-size="5px" font-weight="bold" font-family="'Helvetica Neue', Helvetica, Arial-Unicode, Arial, Sans-serif">Created by Yash Gohel</text><text x="0" y="120" fill="#000000" font-size="5px" font-weight="bold" font-family="'Helvetica Neue', Helvetica, Arial-Unicode, Arial, Sans-serif">from the Noun Project</text></svg>